<svg width="56" height="56" viewBox="0 0 56 56" fill="none" xmlns="http://www.w3.org/2000/svg">
<path d="M10.6749 10.675C11.3312 10.0189 12.2213 9.65025 13.1494 9.65025C14.0775 9.65025 14.9676 10.0189 15.6239 10.675L27.9999 23.051L40.3759 10.675C41.036 10.0375 41.9201 9.68467 42.8378 9.69265C43.7555 9.70062 44.6333 10.0687 45.2823 10.7176C45.9312 11.3666 46.2993 12.2444 46.3073 13.1621C46.3152 14.0798 45.9624 14.9639 45.3249 15.624L32.9489 28L45.3249 40.376C45.9624 41.0361 46.3152 41.9202 46.3073 42.8379C46.2993 43.7556 45.9312 44.6334 45.2823 45.2824C44.6333 45.9313 43.7555 46.2994 42.8378 46.3074C41.9201 46.3153 41.036 45.9626 40.3759 45.325L27.9999 32.949L15.6239 45.325C14.9638 45.9626 14.0797 46.3153 13.162 46.3074C12.2443 46.2994 11.3665 45.9313 10.7175 45.2824C10.0686 44.6334 9.70051 43.7556 9.69254 42.8379C9.68457 41.9202 10.0373 41.0361 10.6749 40.376L23.0509 28L10.6749 15.624C10.0188 14.9677 9.65015 14.0776 9.65015 13.1495C9.65015 12.2214 10.0188 11.3314 10.6749 10.675V10.675Z" fill="#F5F5F5"/>
</svg>
