<svg width="48" height="48" viewBox="0 0 48 48" fill="none" xmlns="http://www.w3.org/2000/svg">
<path d="M45.9741 17.1328C45.4538 15.8962 44.5894 15.0047 43.4738 14.5556L43.4588 14.55C42.951 14.3511 42.4104 14.2493 41.865 14.25H41.805C39.2513 14.2884 36.6441 16.4587 35.3184 19.6509C34.3463 21.9853 34.2347 24.4959 35.0203 26.3672C35.5397 27.6047 36.4059 28.4962 37.5263 28.9453L37.5384 28.95C38.0463 29.1487 38.5869 29.2505 39.1322 29.25C41.7103 29.25 44.3447 27.0797 45.6947 23.8453C46.6547 21.5137 46.7606 19.005 45.9741 17.1328ZM35.7703 30.9009C34.2975 30.0159 32.9053 29.1787 31.9959 27.675C29.4872 23.5125 27.9722 21 24 21C20.0278 21 18.5091 23.5125 15.9947 27.675C15.0834 29.1806 13.6884 30.0187 12.2109 30.9075C10.5169 31.9256 8.76657 32.9775 8.01094 35.0475C7.71719 35.7937 7.56921 36.5893 7.575 37.3912C7.575 40.7615 10.2 43.5037 13.425 43.5037C15.0891 43.5037 16.86 42.9272 18.7341 42.3168C20.5359 41.73 22.3988 41.1234 24.0094 41.1234C25.62 41.1234 27.4781 41.73 29.2734 42.3168C31.1438 42.9234 32.9063 43.5 34.575 43.5C37.7953 43.5 40.4156 40.7578 40.4156 37.3875C40.4183 36.5849 40.2671 35.7894 39.9703 35.0437C39.2147 32.9718 37.4634 31.919 35.7703 30.9009ZM14.0625 17.7047C15.1781 19.1044 16.5938 19.875 18.0488 19.875C18.2474 19.875 18.4457 19.8602 18.6422 19.8309C21.6769 19.3847 23.5678 15.6815 22.9472 11.3934C22.6875 9.59061 21.9938 7.91154 21 6.66654C19.8863 5.26967 18.4688 4.49998 17.0147 4.49998C16.8161 4.49999 16.6177 4.51472 16.4213 4.54405C13.3866 4.9903 11.4956 8.69342 12.1163 12.9815C12.375 14.7815 13.0688 16.4587 14.0625 17.7047ZM29.3588 19.8309C29.5552 19.8602 29.7536 19.875 29.9522 19.875C31.4081 19.875 32.8228 19.1044 33.9384 17.7047C34.9313 16.4587 35.6213 14.7815 35.8838 12.9797C36.5044 8.69342 34.6134 4.9903 31.5788 4.54217C31.3823 4.51284 31.1839 4.49811 30.9853 4.49811C29.5313 4.49998 28.1138 5.26967 27 6.66654C26.0063 7.91154 25.3125 9.59061 25.0538 11.3953C24.4331 15.6815 26.3241 19.3847 29.3588 19.8309V19.8309ZM10.4616 28.95L10.4747 28.9453C11.5931 28.4962 12.4584 27.6056 12.9769 26.369C13.7625 24.494 13.6519 21.9862 12.6816 19.6519C11.3381 16.4212 8.70469 14.25 6.12938 14.25C5.58402 14.2492 5.04338 14.351 4.53563 14.55L4.5225 14.5547C3.40688 15 2.54157 15.8944 2.02313 17.1309C1.2375 19.0059 1.34813 21.5137 2.31844 23.8481C3.66188 27.0787 6.29532 29.25 8.87063 29.25C9.41504 29.2504 9.9547 29.1486 10.4616 28.95V28.95Z" fill="#6FCF97"/>
</svg>
