<svg width="48" height="48" viewBox="0 0 48 48" fill="none" xmlns="http://www.w3.org/2000/svg">
<path d="M44 10.1867C42.2133 6.52 37.0667 3.52 31.08 5.26666C28.2193 6.09298 25.7234 7.86504 24 10.2933C22.2766 7.86504 19.7807 6.09298 16.92 5.26666C10.92 3.54666 5.78667 6.52 4 10.1867C1.49333 15.32 2.53333 21.0933 7.09333 27.3467C10.6667 32.24 15.7733 37.2 23.1867 42.96C23.421 43.1427 23.7096 43.242 24.0067 43.242C24.3038 43.242 24.5924 43.1427 24.8267 42.96C32.2267 37.2133 37.3467 32.2933 40.92 27.3467C45.4667 21.0933 46.5067 15.32 44 10.1867V10.1867Z" fill="#27AE60"/>
</svg>
