<svg width="48" height="48" viewBox="0 0 48 48" fill="none" xmlns="http://www.w3.org/2000/svg">
<circle cx="24" cy="24" r="23.5" stroke="#F5F5F5"/>
<path d="M24 33.62C23.8527 33.6195 23.7097 33.5703 23.5933 33.48C19.8867 30.6 17.3333 28.12 15.5467 25.6733C13.2667 22.5467 12.7467 19.66 14 17.0933C14.8933 15.26 17.46 13.76 20.46 14.6333C21.8904 15.0465 23.1383 15.9325 24 17.1467C24.8617 15.9325 26.1096 15.0465 27.54 14.6333C30.5333 13.7733 33.1067 15.26 34 17.0933C35.2533 19.66 34.7333 22.5467 32.4533 25.6733C30.6667 28.12 28.1133 30.6 24.4067 33.48C24.2903 33.5703 24.1473 33.6195 24 33.62V33.62ZM18.7533 15.72C18.0395 15.6922 17.3316 15.8594 16.7056 16.2035C16.0795 16.5476 15.5591 17.0558 15.2 17.6733C14.1667 19.7933 14.6333 22.1533 16.6267 24.88C18.745 27.6124 21.2256 30.0436 24 32.1067C26.7739 30.0457 29.2545 27.6167 31.3733 24.8867C33.3733 22.1533 33.8333 19.7933 32.8 17.68C32.1333 16.3467 30.1333 15.2867 27.9067 15.9133C27.1927 16.1243 26.5308 16.4825 25.9636 16.9647C25.3964 17.447 24.9364 18.0426 24.6133 18.7133C24.5631 18.8356 24.4777 18.9402 24.3679 19.0138C24.2581 19.0874 24.1289 19.1267 23.9967 19.1267C23.8645 19.1267 23.7353 19.0874 23.6255 19.0138C23.5157 18.9402 23.4302 18.8356 23.38 18.7133C23.0593 18.0409 22.6002 17.4439 22.0326 16.9614C21.465 16.4788 20.8019 16.1217 20.0867 15.9133C19.6533 15.7875 19.2046 15.7224 18.7533 15.72V15.72Z" fill="#27AE60"/>
</svg>
