<svg width="48" height="48" viewBox="0 0 48 48" fill="none" xmlns="http://www.w3.org/2000/svg">
<path d="M24 43.24C23.7054 43.2391 23.4194 43.1406 23.1867 42.96C15.7733 37.2 10.6667 32.24 7.09334 27.3467C2.53334 21.0933 1.49334 15.32 4.00001 10.1867C5.78667 6.52 10.92 3.52 16.92 5.26666C19.7807 6.09298 22.2767 7.86504 24 10.2933C25.7234 7.86504 28.2193 6.09298 31.08 5.26666C37.0667 3.54666 42.2133 6.52 44 10.1867C46.5067 15.32 45.4667 21.0933 40.9067 27.3467C37.3333 32.24 32.2267 37.2 24.8133 42.96C24.5806 43.1406 24.2946 43.2391 24 43.24V43.24ZM13.5067 7.44C12.079 7.38443 10.6632 7.71873 9.41113 8.40699C8.1591 9.09526 7.11814 10.1115 6.40001 11.3467C4.33334 15.5867 5.26667 20.3067 9.25334 25.76C13.4901 31.2248 18.4512 36.0872 24 40.2133C29.5479 36.0913 34.509 31.2334 38.7467 25.7733C42.7467 20.3067 43.6667 15.5867 41.6 11.36C40.2667 8.69333 36.2667 6.57333 31.8133 7.82666C30.3854 8.24867 29.0616 8.96495 27.9272 9.92943C26.7928 10.8939 25.8729 12.0852 25.2267 13.4267C25.1262 13.6712 24.9553 13.8804 24.7357 14.0276C24.5161 14.1748 24.2577 14.2534 23.9933 14.2534C23.729 14.2534 23.4706 14.1748 23.251 14.0276C23.0313 13.8804 22.8605 13.6712 22.76 13.4267C22.1186 12.0819 21.2003 10.8878 20.0652 9.92269C18.9301 8.95761 17.6038 8.24333 16.1733 7.82666C15.3066 7.57493 14.4092 7.4448 13.5067 7.44V7.44Z" fill="#27AE60"/>
</svg>
