<svg width="40" height="14" viewBox="0 0 40 14" fill="none" xmlns="http://www.w3.org/2000/svg">
<path d="M1 6.49998H0.5V7.49998H1V6.49998ZM38.5 6.99998L38.7864 7.40978L39.3908 6.98736L38.7747 6.58222L38.5 6.99998ZM33.5685 1.42545L33.394 0.9569L32.4569 1.30595L32.6314 1.7745L33.5685 1.42545ZM32.661 12.1606L32.4216 12.5996L33.2996 13.0783L33.5389 12.6394L32.661 12.1606ZM1 7.49998H38.5V6.49998H1V7.49998ZM32.6314 1.7745C32.8907 2.47056 33.3884 3.16814 33.9539 3.80782C34.5244 4.45324 35.1905 5.06896 35.8193 5.60012C36.4493 6.13223 37.0492 6.58546 37.4912 6.90552C37.7125 7.06572 37.8948 7.19299 38.0223 7.28055C38.0861 7.32434 38.1362 7.35823 38.1707 7.38137C38.1879 7.39294 38.2012 7.40182 38.2104 7.40792C38.215 7.41096 38.2186 7.41332 38.221 7.41495C38.2223 7.41577 38.2232 7.41642 38.2239 7.41688C38.2243 7.41711 38.2246 7.4173 38.2248 7.41744C38.2249 7.41751 38.225 7.41758 38.2251 7.41762C38.2252 7.41768 38.2252 7.41773 38.5 6.99998C38.7747 6.58222 38.7748 6.58225 38.7748 6.58226C38.7748 6.58225 38.7748 6.58226 38.7747 6.58224C38.7747 6.5822 38.7746 6.58212 38.7744 6.58199C38.774 6.58174 38.7733 6.58131 38.7724 6.5807C38.7706 6.57948 38.7677 6.57756 38.7637 6.57495C38.7559 6.56973 38.7439 6.56174 38.728 6.55109C38.6963 6.5298 38.6491 6.49788 38.5884 6.45618C38.4669 6.37277 38.2915 6.25031 38.0777 6.09555C37.6497 5.78568 37.0706 5.34799 36.4646 4.83615C35.8575 4.32336 35.2305 3.74211 34.7031 3.14549C34.1706 2.54313 33.7653 1.9536 33.5685 1.42545L32.6314 1.7745ZM38.5 6.99998C38.2135 6.59017 38.2134 6.59022 38.2134 6.59028C38.2133 6.59031 38.2132 6.59038 38.2131 6.59045C38.2129 6.59059 38.2127 6.59076 38.2124 6.59099C38.2117 6.59143 38.2109 6.59204 38.2097 6.59281C38.2075 6.59437 38.2044 6.59659 38.2003 6.59947C38.1921 6.60523 38.1803 6.61362 38.1649 6.62455C38.1342 6.64642 38.0896 6.67846 38.0325 6.71996C37.9185 6.80294 37.7548 6.92384 37.5543 7.07693C37.1535 7.38288 36.604 7.8186 36.0084 8.33824C34.8304 9.3661 33.4223 10.7646 32.661 12.1606L33.5389 12.6394C34.2101 11.4087 35.502 10.1072 36.6659 9.09174C37.2412 8.58971 37.7731 8.16792 38.1611 7.87178C38.3549 7.72383 38.5123 7.60754 38.6209 7.52859C38.6751 7.48913 38.7171 7.45902 38.7452 7.43897C38.7593 7.42895 38.7699 7.42145 38.7768 7.41655C38.7803 7.41411 38.7828 7.41231 38.7844 7.41118C38.7853 7.41061 38.7858 7.41021 38.7862 7.40998C38.7863 7.40986 38.7864 7.40979 38.7865 7.40975C38.7865 7.40974 38.7865 7.40974 38.7865 7.40974C38.7865 7.40975 38.7864 7.40978 38.5 6.99998Z" fill="#6FCF97"/>
</svg>
