<svg width="48" height="48" viewBox="0 0 48 48" fill="none" xmlns="http://www.w3.org/2000/svg">
<path d="M45.9741 17.1328C45.4538 15.8963 44.5894 15.0047 43.4737 14.5556L43.4587 14.55C42.951 14.3511 42.4103 14.2494 41.865 14.25H41.805C39.2513 14.2884 36.6441 16.4588 35.3184 19.6509C34.3462 21.9853 34.2347 24.4959 35.0203 26.3672C35.5397 27.6047 36.4059 28.4963 37.5262 28.9453L37.5384 28.95C38.0463 29.1487 38.5869 29.2505 39.1322 29.25C41.7103 29.25 44.3447 27.0797 45.6947 23.8453C46.6547 21.5138 46.7606 19.005 45.9741 17.1328ZM35.7703 30.9009C34.2975 30.0159 32.9053 29.1788 31.9959 27.675C29.4872 23.5125 27.9722 21 24 21C20.0278 21 18.5091 23.5125 15.9947 27.675C15.0834 29.1806 13.6884 30.0188 12.2109 30.9075C10.5169 31.9256 8.76656 32.9775 8.01093 35.0475C7.71718 35.7937 7.5692 36.5893 7.575 37.3913C7.575 40.7616 10.2 43.5038 13.425 43.5038C15.0891 43.5038 16.86 42.9272 18.7341 42.3169C20.5359 41.73 22.3987 41.1234 24.0094 41.1234C25.62 41.1234 27.4781 41.73 29.2734 42.3169C31.1437 42.9234 32.9062 43.5 34.575 43.5C37.7953 43.5 40.4156 40.7578 40.4156 37.3875C40.4183 36.585 40.2671 35.7894 39.9703 35.0438C39.2147 32.9719 37.4634 31.9191 35.7703 30.9009ZM14.0625 17.7047C15.1781 19.1044 16.5937 19.875 18.0487 19.875C18.2474 19.875 18.4457 19.8603 18.6422 19.8309C21.6769 19.3847 23.5678 15.6816 22.9472 11.3934C22.6875 9.59064 21.9937 7.91158 21 6.66658C19.8862 5.2697 18.4687 4.50001 17.0147 4.50001C16.8161 4.50002 16.6177 4.51475 16.4212 4.54408C13.3866 4.99033 11.4956 8.69345 12.1162 12.9816C12.375 14.7816 13.0687 16.4588 14.0625 17.7047ZM29.3587 19.8309C29.5552 19.8603 29.7536 19.875 29.9522 19.875C31.4081 19.875 32.8228 19.1044 33.9384 17.7047C34.9312 16.4588 35.6212 14.7816 35.8837 12.9797C36.5044 8.69345 34.6134 4.99033 31.5787 4.5422C31.3823 4.51287 31.1839 4.49814 30.9853 4.49814C29.5312 4.50001 28.1137 5.2697 27 6.66658C26.0062 7.91158 25.3125 9.59064 25.0537 11.3953C24.4331 15.6816 26.3241 19.3847 29.3587 19.8309V19.8309ZM10.4616 28.95L10.4747 28.9453C11.5931 28.4963 12.4584 27.6056 12.9769 26.3691C13.7625 24.4941 13.6519 21.9863 12.6816 19.6519C11.3381 16.4213 8.70468 14.25 6.12937 14.25C5.58401 14.2492 5.04337 14.351 4.53562 14.55L4.5225 14.5547C3.40687 15 2.54156 15.8944 2.02312 17.1309C1.2375 19.0059 1.34812 21.5138 2.31843 23.8481C3.66187 27.0788 6.29531 29.25 8.87062 29.25C9.41503 29.2504 9.95469 29.1487 10.4616 28.95V28.95Z" fill="white"/>
</svg>
